<?xml version="1.0" encoding="UTF-8"?>
<svg width="20px" height="11px" viewBox="0 0 20 11" version="1.1" xmlns="http://www.w3.org/2000/svg" xmlns:xlink="http://www.w3.org/1999/xlink">
    <!-- Generator: Sketch 50.2 (55047) - http://www.bohemiancoding.com/sketch -->
    <title>Arrow-down - simple-line-icons</title>
    <desc>Created with Sketch.</desc>
    <defs></defs>
    <g id="Symbols" stroke="none" stroke-width="1" fill="none" fill-rule="evenodd">
        <g id="select" transform="translate(-185.000000, -15.000000)" fill="#5BA0F0">
            <g id="Group-3">
                <path d="M185.15625,15.6210938 C185.15625,15.5429684 185.172526,15.461589 185.205078,15.3769531 C185.23763,15.2923173 185.286458,15.2174482 185.351562,15.1523438 C185.481771,15.0351557 185.63802,14.9765625 185.820312,14.9765625 C186.002605,14.9765625 186.158854,15.0351557 186.289062,15.1523438 L195.117188,23.9804688 L203.808594,15.2890625 C203.938803,15.1588535 204.095051,15.09375 204.277344,15.09375 C204.459636,15.09375 204.615885,15.1588535 204.746094,15.2890625 C204.876303,15.4192715 204.941406,15.5755199 204.941406,15.7578125 C204.941406,15.9401051 204.876303,16.0963535 204.746094,16.2265625 L195.585938,25.3867188 C195.455729,25.5169277 195.29948,25.5820312 195.117188,25.5820312 C194.934895,25.5820312 194.778646,25.5169277 194.648438,25.3867188 L185.351562,16.109375 C185.286458,16.0442705 185.23763,15.9694015 185.205078,15.8847656 C185.172526,15.8001298 185.15625,15.71224 185.15625,15.6210938 Z" id="Arrow-down---simple-line-icons"></path>
            </g>
        </g>
    </g>
</svg>