<?xml version="1.0" encoding="UTF-8"?>
<svg width="75px" height="75px" viewBox="0 0 75 75" version="1.1" xmlns="http://www.w3.org/2000/svg" xmlns:xlink="http://www.w3.org/1999/xlink">
    <!-- Generator: Sketch 50.2 (55047) - http://www.bohemiancoding.com/sketch -->
    <title>004-coin</title>
    <desc>Created with Sketch.</desc>
    <defs></defs>
    <g id="Page-1" stroke="none" stroke-width="1" fill="none" fill-rule="evenodd">
        <g id="Desktop-HD-Copy-2" transform="translate(-343.000000, -1592.000000)" fill="#FFFFFF" fill-rule="nonzero">
            <g id="Group-6" transform="translate(0.000000, 1389.000000)">
                <g id="004-coin" transform="translate(343.000000, 203.000000)">
                    <path d="M41.3793103,0 C40.0590517,0 38.7594828,0.0982758621 37.4806034,0.271551724 C36.1461207,0.0931034483 34.8775862,0 33.6206897,0 C27.3064655,0 21.4021552,2.03275862 16.3836207,5.54741379 C16.3823276,5.5487069 16.3797414,5.55 16.3784483,5.5512931 C13.8336207,7.33448276 11.5189655,9.50172414 9.49137931,11.9780172 C9.43060345,12.0336207 9.38534483,12.0982759 9.3362069,12.1642241 C7.41724138,14.5409483 5.76724138,17.2021552 4.43405172,20.0806034 C4.39784483,20.1452586 4.36810345,20.2099138 4.34353448,20.2810345 C3.42543103,22.2931034 2.65862069,24.4073276 2.06896552,26.6107759 C2.01077586,26.7349138 1.98491379,26.8706897 1.96810345,27.012931 C1.11336207,30.3426724 0.646551724,33.8599138 0.646551724,37.5 C0.646551724,43.1935345 1.77284483,48.5909483 3.77844828,53.4297414 C3.79655172,53.4840517 3.81465517,53.5344828 3.84051724,53.5849138 C5.04051724,56.4478448 6.55215517,59.1103448 8.32241379,61.5193966 C8.37025862,61.5853448 8.40905172,61.6551724 8.46853448,61.7107759 C10.2646552,64.1211207 12.324569,66.2676724 14.5952586,68.0987069 C14.6612069,68.1724138 14.7413793,68.2267241 14.8228448,68.2836207 C20.1594828,72.512069 26.637931,75 33.6206897,75 C34.8775862,75 36.1461207,74.9068966 37.4806034,74.7284483 C38.7594828,74.9017241 40.0590517,75 41.3793103,75 C59.5616379,75 74.3534483,58.1780172 74.3534483,37.5 C74.3534483,16.8219828 59.5616379,0 41.3793103,0 Z M27.7150862,3.38534483 C27.2935345,3.60517241 26.8758621,3.83405172 26.4633621,4.07327586 C26.225431,4.21034483 25.9862069,4.34482759 25.7521552,4.48836207 C25.3952586,4.70689655 25.0461207,4.93836207 24.6982759,5.17241379 L22.2090517,5.17241379 C24.099569,4.28793103 26.0728448,3.59094828 28.1288793,3.15775862 C27.987931,3.22758621 27.8547414,3.31293103 27.7150862,3.38534483 Z M14.6896552,59.4827586 L10.0512931,59.4827586 C8.91077586,57.8715517 7.89827586,56.1400862 7.01896552,54.3103448 L11.9172414,54.3103448 C12.1202586,54.7681034 12.3284483,55.2219828 12.5469828,55.6693966 C12.6413793,55.862069 12.7396552,56.0508621 12.8366379,56.2409483 C13.1017241,56.7607759 13.3771552,57.2728448 13.662931,57.7771552 C13.7689655,57.9646552 13.8711207,58.1547414 13.9797414,58.3396552 C14.2099138,58.7275862 14.4491379,59.1051724 14.6896552,59.4827586 Z M6.42413793,21.9827586 L11.3728448,21.9827586 C11.1465517,22.5478448 10.9318966,23.1193966 10.7288793,23.6987069 C10.6732759,23.8590517 10.6163793,24.0181034 10.562069,24.1784483 C10.3758621,24.7344828 10.2025862,25.2956897 10.0383621,25.862069 L4.9875,25.862069 C5.3987069,24.5288793 5.87974138,23.2357759 6.42413793,21.9827586 Z M3.23275862,37.5 C3.23275862,36.6284483 3.27931034,35.7698276 3.33362069,34.9137931 L8.48922414,34.9137931 C8.48793103,34.9344828 8.48793103,34.9551724 8.48663793,34.9758621 C8.4387931,35.8112069 8.40517241,36.650431 8.40517241,37.5 C8.40517241,37.9331897 8.42068966,38.3625 8.43362069,38.7931034 L3.28318966,38.7931034 C3.26896552,38.3612069 3.23275862,37.9357759 3.23275862,37.5 Z M8.58103448,41.3793103 C8.63017241,41.9237069 8.69353448,42.462931 8.76336207,43.0008621 C8.76853448,43.0409483 8.77112069,43.0810345 8.7762931,43.1211207 C8.87198276,43.8413793 8.98836207,44.5525862 9.11896552,45.2586207 L4.01896552,45.2586207 C3.76681034,43.9887931 3.56767241,42.6969828 3.43965517,41.3793103 L8.58103448,41.3793103 Z M9.38275862,28.4482759 C9.34913793,28.6008621 9.32068966,28.7560345 9.28836207,28.9099138 C9.25344828,29.0793103 9.21724138,29.2487069 9.18491379,29.4193966 C9.02715517,30.2314655 8.8875,31.0487069 8.7762931,31.8788793 C8.77112069,31.9189655 8.76853448,31.9590517 8.76336207,31.9991379 C8.74913793,32.1077586 8.74008621,32.2189655 8.72586207,32.3275862 L3.59353448,32.3275862 C3.76422414,31.0112069 3.98017241,29.712931 4.2762931,28.4482759 L9.38275862,28.4482759 Z M9.69181034,47.8448276 C9.73189655,48.0025862 9.76939655,48.162931 9.81077586,48.3193966 C9.8262931,48.3762931 9.83922414,48.4357759 9.85474138,48.4926724 C10.0681034,49.2801724 10.3073276,50.0547414 10.5633621,50.8202586 C10.6176724,50.9818966 10.674569,51.1409483 10.7301724,51.3 C10.7780172,51.4422414 10.8258621,51.5844828 10.8762931,51.7241379 L5.89396552,51.7241379 C5.40387931,50.4685345 4.98232759,49.1728448 4.62284483,47.8448276 L9.69181034,47.8448276 Z M13.9810345,16.6603448 C13.8724138,16.8452586 13.7702586,17.0353448 13.6642241,17.2228448 C13.3784483,17.7271552 13.1030172,18.2392241 12.837931,18.7590517 C12.7409483,18.9491379 12.6426724,19.137931 12.5482759,19.3306034 C12.5366379,19.3525862 12.525,19.374569 12.5146552,19.3965517 L7.66681034,19.3965517 C8.64568966,17.5512931 9.77327586,15.825 11.0237069,14.2241379 L15.5534483,14.2241379 C15.3956897,14.450431 15.2366379,14.675431 15.0840517,14.9056034 C14.7025862,15.4784483 14.3340517,16.062931 13.9810345,16.6603448 Z M17.7568966,7.75862069 L21.3297414,7.75862069 C21.0090517,8.03922414 20.6883621,8.32112069 20.3780172,8.61336207 C20.1168103,8.85905172 19.8633621,9.11508621 19.6099138,9.37112069 C19.3551724,9.62715517 19.1030172,9.88706897 18.8547414,10.1521552 C18.6155172,10.4081897 18.3737069,10.6616379 18.1409483,10.925431 C17.9340517,11.1581897 17.7362069,11.3987069 17.5357759,11.637931 L13.2659483,11.637931 C14.6547414,10.1935345 16.1534483,8.89137931 17.7568966,7.75862069 Z M12.0568966,62.0689655 L16.4948276,62.0689655 C16.6409483,62.2603448 16.7857759,62.4517241 16.9357759,62.6405172 C17.3262931,63.1306034 17.7271552,63.6090517 18.1396552,64.074569 C18.3724138,64.3383621 18.612931,64.5918103 18.8534483,64.8478448 C19.1017241,65.112931 19.3538793,65.3728448 19.6086207,65.6288793 C19.7133621,65.7336207 19.8116379,65.8448276 19.9176724,65.9482759 L16.0280172,65.9482759 C14.6081897,64.7857759 13.2801724,63.4875 12.0568966,62.0689655 Z M28.1288793,71.8422414 C25.1637931,71.2176724 22.3616379,70.0719828 19.7637931,68.5344828 L22.8918103,68.5344828 C23.0560345,68.6612069 23.225431,68.7801724 23.3909483,68.9043103 C23.6612069,69.1047414 23.9301724,69.3064655 24.2056034,69.4991379 C24.7125,69.8521552 25.2284483,70.1909483 25.7521552,70.512931 C25.9862069,70.6564655 26.225431,70.7896552 26.4633621,70.9280172 C26.8758621,71.1672414 27.2935345,71.3961207 27.7150862,71.6159483 C27.8547414,71.687069 27.987931,71.7724138 28.1288793,71.8422414 Z M41.3793103,72.4137931 C40.3525862,72.4137931 39.3375,72.3530172 38.3366379,72.237931 L37.8219828,72.1655172 C37.7586207,72.1564655 37.6952586,72.1461207 37.6318966,72.1383621 C37.1831897,72.075 36.737069,72 36.2935345,71.9146552 C36.2599138,71.9081897 36.2262931,71.900431 36.1913793,71.8939655 C35.7607759,71.8086207 35.3340517,71.7142241 34.9099138,71.6094828 C34.850431,71.5952586 34.7922414,71.5771552 34.7327586,71.562931 C34.337069,71.462069 33.9426724,71.3534483 33.5534483,71.2344828 C33.4396552,71.199569 33.3284483,71.1594828 33.2146552,71.1232759 C32.8810345,71.0172414 32.5474138,70.9086207 32.2189655,70.7896552 C31.9603448,70.6952586 31.7043103,70.5918103 31.4482759,70.4896552 C31.2672414,70.4185345 31.0836207,70.3512931 30.9038793,70.275 C23.949569,67.3318966 18.1823276,61.5465517 14.6741379,54.1512931 C14.6469828,54.0956897 14.6237069,54.0375 14.5965517,53.9818966 C14.4025862,53.5681034 14.2150862,53.1491379 14.0353448,52.725 C13.9693966,52.5698276 13.9086207,52.4107759 13.8452586,52.2543103 C13.7107759,51.924569 13.5788793,51.5948276 13.4534483,51.2599138 C13.3771552,51.0556034 13.3047414,50.8487069 13.2323276,50.6431034 C13.1275862,50.349569 13.025431,50.0560345 12.9284483,49.7586207 C12.8521552,49.5258621 12.7797414,49.2905172 12.7073276,49.0551724 C12.6219828,48.7771552 12.5392241,48.4991379 12.4603448,48.2185345 C12.3905172,47.9689655 12.3232759,47.7181034 12.2573276,47.4659483 C12.1862069,47.1918103 12.1176724,46.9150862 12.0517241,46.6383621 C11.9909483,46.3797414 11.9314655,46.1198276 11.8758621,45.8599138 C11.8163793,45.5831897 11.7607759,45.3038793 11.7077586,45.024569 C11.6573276,44.762069 11.6068966,44.499569 11.5616379,44.2344828 C11.5125,43.9461207 11.4685345,43.6551724 11.4258621,43.362931 C11.387069,43.1043103 11.3482759,42.8456897 11.3146552,42.5857759 C11.274569,42.2741379 11.2435345,41.9599138 11.2099138,41.6456897 C11.1840517,41.4025862 11.1568966,41.1594828 11.1349138,40.9150862 C11.1038793,40.5556034 11.0831897,40.1922414 11.0625,39.8288793 C11.0508621,39.6258621 11.0340517,39.4241379 11.025,39.2198276 C11.0056034,38.649569 10.9913793,38.0767241 10.9913793,37.5 C10.9913793,36.9232759 11.0056034,36.350431 11.0288793,35.7801724 C11.037931,35.5758621 11.0547414,35.3741379 11.0663793,35.1711207 C11.087069,34.8077586 11.1077586,34.4456897 11.1387931,34.0849138 C11.1594828,33.8405172 11.187931,33.5974138 11.2137931,33.3543103 C11.2461207,33.0400862 11.2784483,32.7258621 11.3185345,32.4142241 C11.3521552,32.1543103 11.3909483,31.8956897 11.4297414,31.637069 C11.4724138,31.3461207 11.5163793,31.0551724 11.5655172,30.7655172 C11.6107759,30.500431 11.6612069,30.237931 11.7116379,29.975431 C11.7659483,29.6961207 11.8202586,29.4168103 11.8797414,29.1400862 C11.9353448,28.8788793 11.9948276,28.6202586 12.0556034,28.3616379 C12.1215517,28.0849138 12.1887931,27.8081897 12.2612069,27.5340517 C12.3271552,27.2818966 12.3943966,27.0310345 12.4642241,26.7814655 C12.5431034,26.5008621 12.6258621,26.2228448 12.7112069,25.9448276 C12.7810345,25.7094828 12.8534483,25.4741379 12.9297414,25.2413793 C13.0267241,24.9439655 13.1301724,24.650431 13.2336207,24.3568966 C13.3060345,24.1512931 13.3784483,23.9443966 13.4547414,23.7400862 C13.5801724,23.4051724 13.712069,23.075431 13.8465517,22.7456897 C13.9099138,22.5892241 13.9719828,22.4301724 14.0366379,22.275 C14.2163793,21.8508621 14.4038793,21.4318966 14.5978448,21.0181034 C14.6237069,20.9612069 14.6482759,20.9043103 14.675431,20.8487069 C18.1836207,13.4521552 23.9508621,7.66810345 30.9051724,4.725 C31.0849138,4.65 31.2672414,4.58275862 31.449569,4.51034483 C31.7056034,4.40818966 31.9603448,4.30474138 32.2202586,4.21034483 C32.5487069,4.09137931 32.8823276,3.98275862 33.2159483,3.87672414 C33.3284483,3.84051724 33.4409483,3.80043103 33.5547414,3.76551724 C33.9439655,3.64655172 34.3383621,3.53793103 34.7340517,3.43706897 C34.7935345,3.42155172 34.8517241,3.40474138 34.9112069,3.39051724 C35.3353448,3.28577586 35.762069,3.19137931 36.1926724,3.10603448 C36.2262931,3.09956897 36.2599138,3.09181034 36.2948276,3.08534483 C36.737069,3 37.1831897,2.925 37.6331897,2.86163793 C37.6965517,2.85258621 37.7599138,2.84224138 37.8232759,2.83448276 L38.337931,2.76206897 C39.3375,2.64698276 40.3525862,2.5862069 41.3793103,2.5862069 C58.1353448,2.5862069 71.7672414,18.2482759 71.7672414,37.5 C71.7672414,56.7517241 58.1353448,72.4137931 41.3793103,72.4137931 Z" id="Shape"></path>
                    <path d="M50.7568966,61.7508621 C50.0392241,62.1193966 49.2969828,62.4491379 48.5508621,62.7297414 C47.8823276,62.9806034 47.5448276,63.7267241 47.7969828,64.3952586 C47.9909483,64.9137931 48.4836207,65.2331897 49.0073276,65.2331897 C49.1586207,65.2331897 49.3125,65.2060345 49.4637931,65.1491379 C50.3017241,64.8336207 51.1357759,64.4637931 51.9400862,64.0512931 C52.575,63.725431 52.8258621,62.9456897 52.5,62.3107759 C52.1728448,61.6758621 51.3943966,61.4224138 50.7568966,61.7508621 Z" id="Shape"></path>
                    <path d="M58.2168103,55.6293103 C57.7034483,56.2603448 57.1564655,56.8706897 56.5887931,57.4448276 C56.087069,57.9530172 56.0922414,58.7715517 56.6017241,59.2732759 C56.8525862,59.5215517 57.1810345,59.6469828 57.5094828,59.6469828 C57.8431034,59.6469828 58.1767241,59.5189655 58.4301724,59.262931 C59.0534483,58.6306034 59.6560345,57.9581897 60.2224138,57.2637931 C60.6737069,56.7090517 60.5896552,55.8943966 60.0349138,55.4443966 C59.4801724,54.9943966 58.6668103,55.0771552 58.2168103,55.6293103 Z" id="Shape"></path>
                    <path d="M41.3793103,64.0396552 C40.5762931,64.0396552 39.7668103,63.9918103 38.9780172,63.8974138 C38.25,63.825 37.6241379,64.3202586 37.5400862,65.0288793 C37.4560345,65.7375 37.9616379,66.3814655 38.6702586,66.4668103 C39.5625,66.5728448 40.475431,66.6271552 41.3806034,66.6271552 L41.4892241,66.6271552 C42.2043103,66.6271552 42.7280172,66.0478448 42.7280172,65.3340517 C42.7280172,64.6202586 42.0943966,64.0396552 41.3793103,64.0396552 Z" id="Shape"></path>
                    <path d="M61.7211207,19.7547414 C61.2206897,19.0163793 60.6801724,18.2935345 60.1150862,17.6056034 C59.6599138,17.0547414 58.8478448,16.9758621 58.2943966,17.4284483 C57.7435345,17.8823276 57.6646552,18.6969828 58.1172414,19.2491379 C58.6318966,19.875 59.124569,20.5331897 59.5797414,21.2056034 C59.8293103,21.575431 60.237931,21.7732759 60.6517241,21.7732759 C60.9012931,21.7732759 61.1534483,21.7008621 61.3758621,21.5508621 C61.9668103,21.1487069 62.1219828,20.3456897 61.7211207,19.7547414 Z" id="Shape"></path>
                    <path d="M64.5271552,46.2711207 C63.8534483,46.0448276 63.1163793,46.4068966 62.8887931,47.0831897 C62.6275862,47.8564655 62.3301724,48.6258621 62.0056034,49.3719828 C61.7198276,50.0262931 62.0211207,50.7892241 62.675431,51.0737069 C62.8435345,51.1474138 63.0193966,51.1810345 63.1900862,51.1810345 C63.6905172,51.1810345 64.1650862,50.8900862 64.3771552,50.4038793 C64.7301724,49.5905172 65.0534483,48.7512931 65.337931,47.9081897 C65.5681034,47.2331897 65.2047414,46.5 64.5271552,46.2711207 Z" id="Shape"></path>
                    <path d="M65.7323276,36.1655172 C65.0172414,36.1655172 64.4392241,36.7849138 64.4392241,37.5 C64.4392241,38.2991379 64.4094828,39.0982759 64.3487069,39.8780172 C64.2931034,40.5905172 64.8258621,41.2125 65.5383621,41.2668103 C65.5719828,41.2693966 65.6068966,41.2706897 65.6392241,41.2706897 C66.3090517,41.2706897 66.8741379,40.7560345 66.9271552,40.0771552 C66.9931034,39.2314655 67.025431,38.3637931 67.025431,37.4987069 L67.025431,37.4159483 C67.025431,36.7034483 66.4474138,36.1655172 65.7323276,36.1655172 Z" id="Shape"></path>
                    <path d="M23.5719828,19.8051724 C23.9469828,19.8051724 24.3193966,19.6435345 24.5741379,19.3306034 C25.0900862,18.6982759 25.6383621,18.0892241 26.2047414,17.5189655 C26.7077586,17.012069 26.7051724,16.1935345 26.1969828,15.6905172 C25.6900862,15.1887931 24.8728448,15.1900862 24.3685345,15.6982759 C23.7452586,16.3267241 23.1400862,16.9991379 22.5711207,17.6948276 C22.1185345,18.2482759 22.2012931,19.062931 22.7547414,19.5142241 C22.9952586,19.7107759 23.2862069,19.8051724 23.5719828,19.8051724 Z" id="Shape"></path>
                    <path d="M31.4599138,13.3668103 C31.6564655,13.3668103 31.8581897,13.3215517 32.0456897,13.2258621 C32.7672414,12.8586207 33.5107759,12.5301724 34.2556034,12.2521552 C34.9241379,12.0025862 35.262931,11.2564655 35.0133621,10.587931 C34.7637931,9.91810345 34.0241379,9.57801724 33.3491379,9.83017241 C32.5137931,10.1431034 31.6797414,10.5103448 30.8715517,10.9228448 C30.2353448,11.2461207 29.9818966,12.0258621 30.3064655,12.662069 C30.5353448,13.1094828 30.9892241,13.3668103 31.4599138,13.3668103 Z" id="Shape"></path>
                    <path d="M32.0922414,61.7987069 C31.3784483,61.4366379 30.6737069,61.0280172 30,60.5857759 C29.4025862,60.1939655 28.6008621,60.3633621 28.2090517,60.9594828 C27.8185345,61.5568966 27.9853448,62.3586207 28.5827586,62.7491379 C29.3366379,63.2431034 30.1228448,63.6982759 30.9232759,64.1043103 C31.1107759,64.2 31.3099138,64.2439655 31.5064655,64.2439655 C31.9784483,64.2439655 32.4336207,63.9853448 32.6612069,63.5366379 C32.9844828,62.900431 32.7310345,62.1219828 32.0922414,61.7987069 Z" id="Shape"></path>
                    <path d="M18.3193966,37.5 C18.3193966,36.6943966 18.3517241,35.8758621 18.4150862,35.0689655 C18.4706897,34.3564655 17.9392241,33.7344828 17.2267241,33.6775862 C16.5219828,33.6310345 15.8922414,34.1534483 15.8366379,34.8646552 C15.7681034,35.7387931 15.7331897,36.6258621 15.7331897,37.4987069 L15.7331897,37.5258621 C15.7331897,38.2396552 16.3112069,38.8047414 17.0262931,38.8047414 C17.7413793,38.8047414 18.3193966,38.2137931 18.3193966,37.5 Z" id="Shape"></path>
                    <path d="M19.2090517,44.8293103 C19.0357759,44.1362069 18.3336207,43.7133621 17.6418103,43.8866379 C16.9487069,44.0586207 16.5271552,44.7607759 16.6991379,45.4538793 C16.9137931,46.3150862 17.1685345,47.1775862 17.4556034,48.0181034 C17.6392241,48.5560345 18.1409483,48.8935345 18.6788793,48.8935345 C18.8172414,48.8935345 18.9581897,48.8702586 19.0965517,48.8237069 C19.7715517,48.5922414 20.1336207,47.8577586 19.9021552,47.1814655 C19.6396552,46.412069 19.4068966,45.6206897 19.2090517,44.8293103 Z" id="Shape"></path>
                    <path d="M20.1077586,23.8771552 C19.449569,23.5849138 18.6905172,23.8875 18.4047414,24.5418103 C18.050431,25.3512931 17.724569,26.1905172 17.4375,27.0362069 C17.2086207,27.7125 17.5719828,28.4469828 18.2469828,28.6771552 C18.3840517,28.7237069 18.525,28.7456897 18.662069,28.7456897 C19.2012931,28.7456897 19.7043103,28.4056034 19.8866379,27.8676724 C20.1491379,27.0918103 20.4478448,26.3224138 20.7737069,25.5814655 C21.0594828,24.9271552 20.762069,24.1642241 20.1077586,23.8771552 Z" id="Shape"></path>
                    <path d="M23.1491379,53.750431 C22.7482759,53.1581897 21.9465517,53.0030172 21.3530172,53.4025862 C20.762069,53.8034483 20.6068966,54.6064655 21.0064655,55.1987069 C21.5133621,55.9474138 22.0512931,56.6715517 22.6073276,57.350431 C22.8633621,57.662069 23.2331897,57.8237069 23.6081897,57.8237069 C23.8965517,57.8237069 24.1862069,57.7280172 24.4267241,57.5301724 C24.9801724,57.0762931 25.0590517,56.262931 24.6077586,55.7094828 C24.1034483,55.0926724 23.612069,54.4331897 23.1491379,53.750431 Z" id="Shape"></path>
                    <path d="M63.5366379,30.1189655 C63.6827586,30.7060345 64.2103448,31.0978448 64.7896552,31.0978448 C64.8943966,31.0978448 64.9991379,31.0849138 65.1051724,31.0590517 C65.7982759,30.8844828 66.2185345,30.1823276 66.0452586,29.4905172 C65.8293103,28.6306034 65.574569,27.7681034 65.2862069,26.9275862 C65.0547414,26.2525862 64.3202586,25.8918103 63.6426724,26.124569 C62.9676724,26.3560345 62.6068966,27.0918103 62.8383621,27.7681034 C63.1034483,28.5387931 63.3375,29.3301724 63.5366379,30.1189655 Z" id="Shape"></path>
                    <path d="M41.3793103,10.9603448 C42.162931,10.9603448 42.9556034,11.0068966 43.7301724,11.0961207 C43.7818966,11.1025862 43.8323276,11.1051724 43.8814655,11.1051724 C44.5293103,11.1051724 45.087931,10.6202586 45.1642241,9.96206897 C45.2469828,9.25344828 44.7387931,8.61077586 44.0301724,8.52801724 C43.1560345,8.42586207 42.3,8.37413793 41.3405172,8.37413793 L41.3237069,9.66724138 L41.3237069,8.37413793 C40.6086207,8.37413793 40.0577586,8.95215517 40.0577586,9.66724138 C40.0590517,10.3823276 40.6642241,10.9603448 41.3793103,10.9603448 Z" id="Shape"></path>
                    <path d="M50.6198276,13.1793103 C51.3336207,13.5387931 52.0383621,13.9448276 52.7146552,14.3857759 C52.9318966,14.5280172 53.1762931,14.5965517 53.4193966,14.5965517 C53.8409483,14.5965517 54.2547414,14.3896552 54.5043103,14.0094828 C54.8948276,13.412069 54.725431,12.6103448 54.1267241,12.2198276 C53.3702586,11.7258621 52.5827586,11.2719828 51.7836207,10.8698276 C51.1448276,10.5478448 50.3676724,10.8051724 50.0469828,11.4426724 C49.725,12.0801724 49.9810345,12.8573276 50.6198276,13.1793103 Z" id="Shape"></path>
                    <path d="M54.0827586,46.775431 C53.7685345,46.775431 53.4659483,46.9163793 53.175,47.2073276 C50.8797414,49.6099138 47.8021552,50.8293103 44.0275862,50.8293103 C41.0068966,50.8293103 38.4193966,49.9538793 36.3362069,48.2275862 C34.4418103,46.6564655 33.1280172,44.5797414 32.4258621,42.0452586 L42.7681034,42.0452586 C43.5439655,42.0452586 44.0443966,41.5448276 44.0443966,40.7702586 C44.0443966,39.9956897 43.5426724,39.4939655 42.7681034,39.4939655 L31.9564655,39.4939655 C31.8982759,38.9508621 31.8685345,38.337931 31.8685345,37.662931 C31.8685345,36.9737069 31.899569,36.3323276 31.9603448,35.7491379 L43.6086207,35.7491379 C44.3844828,35.7491379 44.8849138,35.2474138 44.8849138,34.4728448 C44.8849138,33.6982759 44.3831897,33.1978448 43.6086207,33.1978448 L32.4271552,33.1978448 C33.1215517,30.6814655 34.3771552,28.6060345 36.1655172,27.0219828 C38.1193966,25.2918103 40.3913793,24.4137931 42.9168103,24.4137931 C45.4681034,24.4137931 47.8642241,25.1935345 50.0327586,26.7258621 C50.925,27.3724138 51.7241379,28.0836207 52.4081897,28.8413793 L52.4081897,31.5349138 C52.4081897,32.3107759 52.9099138,32.8112069 53.6857759,32.8112069 C54.4603448,32.8112069 54.9607759,32.3094828 54.9607759,31.5349138 L54.9607759,23.5577586 C54.9607759,22.7818966 54.4603448,22.2814655 53.6857759,22.2814655 C52.9086207,22.2814655 52.4081897,22.7831897 52.4081897,23.5577586 L52.4081897,25.2556034 C49.6331897,23.0030172 46.562069,21.8612069 43.2737069,21.8612069 C39.8211207,21.8612069 36.8353448,22.9758621 34.400431,25.175431 C32.1051724,27.2508621 30.5650862,29.9469828 29.8202586,33.1965517 L27.2327586,33.1965517 C26.4568966,33.1965517 25.9564655,33.6969828 25.9564655,34.4715517 C25.9564655,35.2461207 26.4568966,35.7478448 27.2327586,35.7478448 L29.4012931,35.7478448 C29.3443966,36.3375 29.3159483,36.9788793 29.3159483,37.6616379 C29.3159483,38.3288793 29.3431034,38.9405172 29.3974138,39.4926724 L26.3935345,39.4926724 C25.6176724,39.4926724 25.1172414,39.9943966 25.1172414,40.7689655 C25.1172414,41.5435345 25.6176724,42.0439655 26.3935345,42.0439655 L29.8163793,42.0439655 C30.5689655,45.3543103 32.1775862,48.0685345 34.6047414,50.1206897 C37.1612069,52.2840517 40.3318966,53.3806034 44.0288793,53.3806034 C48.3284483,53.3806034 52.0112069,51.9051724 54.9801724,48.9956897 C55.3112069,48.6672414 55.3810345,48.3349138 55.3810345,48.1150862 C55.3810345,47.687069 55.0810345,47.337931 54.8573276,47.1142241 C54.575431,46.8349138 54.2806034,46.775431 54.0827586,46.775431 Z" id="Shape"></path>
                </g>
            </g>
        </g>
    </g>
</svg>