<?xml version="1.0" encoding="UTF-8"?>
<svg width="44px" height="44px" viewBox="0 0 44 44" version="1.1" xmlns="http://www.w3.org/2000/svg" xmlns:xlink="http://www.w3.org/1999/xlink">
    <!-- Generator: Sketch 50.2 (55047) - http://www.bohemiancoding.com/sketch -->
    <title>Plus - simple-line-icons</title>
    <desc>Created with Sketch.</desc>
    <defs></defs>
    <g id="Page-1" stroke="none" stroke-width="1" fill="none" fill-rule="evenodd">
        <g id="Desktop-HD-Copy-2" transform="translate(-698.000000, -1299.000000)" fill="#9D9B9B">
            <g id="Group" transform="translate(251.000000, 1272.000000)">
                <path d="M468.625,27 C471.609715,27 474.418403,27.5631454 477.051147,28.6894531 C479.683892,29.8157608 481.978709,31.3573714 483.935669,33.3143311 C485.892629,35.2712907 487.434239,37.5661083 488.560547,40.1988525 C489.686855,42.8315968 490.25,45.6402846 490.25,48.625 C490.25,51.6097154 489.686855,54.4184032 488.560547,57.0511475 C487.434239,59.6838917 485.892629,61.9787093 483.935669,63.9356689 C481.978709,65.8926286 479.683892,67.4342392 477.051147,68.5605469 C474.418403,69.6868546 471.609715,70.25 468.625,70.25 C465.640285,70.25 462.831597,69.6868546 460.198853,68.5605469 C457.566108,67.4342392 455.271291,65.8926286 453.314331,63.9356689 C451.357371,61.9787093 449.815761,59.6838917 448.689453,57.0511475 C447.563145,54.4184032 447,51.6097154 447,48.625 C447,45.6402846 447.563145,42.8315968 448.689453,40.1988525 C449.815761,37.5661083 451.357371,35.2712907 453.314331,33.3143311 C455.271291,31.3573714 457.566108,29.8157608 460.198853,28.6894531 C462.831597,27.5631454 465.640285,27 468.625,27 Z M468.625,67.5891113 C471.243665,67.5891113 473.700387,67.0893198 475.995239,66.0897217 C478.290091,65.0901236 480.289257,63.7315353 481.992798,62.013916 C483.696338,60.2962968 485.047887,58.2900912 486.047485,55.9952393 C487.047083,53.7003873 487.546875,51.2436654 487.546875,48.625 C487.546875,46.0063346 487.047083,43.5496127 486.047485,41.2547607 C485.047887,38.9599088 483.696338,36.9607426 481.992798,35.2572021 C480.289257,33.5536617 478.290091,32.2021127 475.995239,31.2025146 C473.700387,30.2029166 471.243665,29.703125 468.625,29.703125 C466.006335,29.703125 463.549613,30.2029166 461.254761,31.2025146 C458.959909,32.2021127 456.960743,33.5536617 455.257202,35.2572021 C453.553662,36.9607426 452.202113,38.9599088 451.202515,41.2547607 C450.202917,43.5496127 449.703125,46.0063346 449.703125,48.625 C449.703125,51.2436654 450.202917,53.7003873 451.202515,55.9952393 C452.202113,58.2900912 453.553662,60.2962968 455.257202,62.013916 C456.960743,63.7315353 458.959909,65.0901236 461.254761,66.0897217 C463.549613,67.0893198 466.006335,67.5891113 468.625,67.5891113 Z M478.085937,47.2734375 C478.451988,47.2734375 478.768757,47.4071845 479.036255,47.6746826 C479.303753,47.9421807 479.4375,48.25895 479.4375,48.625 C479.4375,48.99105 479.303753,49.3078193 479.036255,49.5753174 C478.768757,49.8428155 478.451988,49.9765625 478.085937,49.9765625 L469.976562,49.9765625 L469.976562,58.0859375 C469.976562,58.4519875 469.842815,58.7687568 469.575317,59.0362549 C469.307819,59.303753 468.99105,59.4375 468.625,59.4375 C468.25895,59.4375 467.942181,59.303753 467.674683,59.0362549 C467.407185,58.7687568 467.273438,58.4519875 467.273438,58.0859375 L467.273438,49.9765625 L459.164062,49.9765625 C458.798012,49.9765625 458.481243,49.8428155 458.213745,49.5753174 C457.946247,49.3078193 457.8125,48.99105 457.8125,48.625 C457.8125,48.25895 457.946247,47.9421807 458.213745,47.6746826 C458.481243,47.4071845 458.798012,47.2734375 459.164062,47.2734375 L467.273438,47.2734375 L467.273438,39.1640625 C467.273438,38.7980125 467.407185,38.4812432 467.674683,38.2137451 C467.942181,37.946247 468.25895,37.8125 468.625,37.8125 C468.99105,37.8125 469.307819,37.946247 469.575317,38.2137451 C469.842815,38.4812432 469.976562,38.7980125 469.976562,39.1640625 L469.976562,47.2734375 L478.085937,47.2734375 Z" id="Plus---simple-line-icons"></path>
            </g>
        </g>
    </g>
</svg>