<?xml version="1.0" encoding="UTF-8"?>
<svg width="92px" height="90px" viewBox="0 0 92 90" version="1.1" xmlns="http://www.w3.org/2000/svg" xmlns:xlink="http://www.w3.org/1999/xlink">
    <!-- Generator: Sketch 50.2 (55047) - http://www.bohemiancoding.com/sketch -->
    <title>005-sprout</title>
    <desc>Created with Sketch.</desc>
    <defs></defs>
    <g id="Page-1" stroke="none" stroke-width="1" fill="none" fill-rule="evenodd">
        <g id="Desktop-HD-Copy-2" transform="translate(-690.000000, -1577.000000)" fill="#FFFFFF" fill-rule="nonzero">
            <g id="Group-6" transform="translate(0.000000, 1389.000000)">
                <g id="005-sprout" transform="translate(690.000000, 188.000000)">
                    <ellipse id="Oval" cx="14.5836172" cy="70.5117857" rx="1.796875" ry="1.78571429"></ellipse>
                    <path d="M82.871875,15.8839286 L72.2994219,15.8839286 C69.9128125,15.8839286 67.7211641,16.7292857 66.0114375,18.1342857 L66.0114375,17.6696429 L66.0114375,12.7657143 C66.0114375,5.75303571 60.2709609,0.0482142857 53.2146328,0.0482142857 L41.2267812,0.0482142857 C40.2343672,0.0482142857 39.4299062,0.847857143 39.4299062,1.83392857 L39.4299062,6.73803571 C39.4299062,13.7505357 45.1703828,19.4553571 52.2267109,19.4553571 L62.4176875,19.4553571 L62.4176875,25.7042857 L62.4176875,30.5221429 L62.4176875,37.5573214 C61.9436719,37.5271429 61.4669609,37.5105357 60.9879141,37.5105357 C56.2655469,37.5105357 51.7507187,38.9573214 47.9323594,41.6942857 C47.1275391,42.2710714 46.9455156,43.3871429 47.5260859,44.1871429 C48.1066562,44.9869643 49.2297031,45.1682143 50.0345234,44.5908929 C53.2370937,42.2955357 57.0249062,41.0821429 60.9879141,41.0821429 C61.9458281,41.0821429 62.8927812,41.1575 63.8230234,41.2991071 C63.9001094,41.3160714 63.9789922,41.3282143 64.0594922,41.3351786 C69.6511875,42.2591071 74.5958281,45.6708929 77.3984141,50.6978571 C77.7265234,51.28625 78.3396172,51.6183929 78.9717578,51.6183929 C79.2662656,51.6183929 79.5650859,51.54625 79.8409062,51.3942857 C80.7089766,50.91625 81.0227109,49.8294643 80.5416875,48.9667857 C77.432375,43.3896429 72.1091328,39.4823214 66.0112578,38.0819643 L66.0112578,32.3078571 L74.7870156,32.3078571 C80.2356797,32.3078571 84.66875,27.9025 84.66875,22.4875 L84.66875,17.6696429 C84.66875,16.6835714 83.8642891,15.8839286 82.871875,15.8839286 Z M62.4176875,15.8839286 L52.2267109,15.8839286 C47.1521563,15.8839286 43.0236563,11.7810714 43.0236563,6.73803571 L43.0236563,3.61964286 L53.2146328,3.61964286 C58.2891875,3.61964286 62.4176875,7.7225 62.4176875,12.7657143 L62.4176875,15.8839286 Z M81.075,22.4876786 C81.075,25.9332143 78.2542656,28.7366071 74.7870156,28.7366071 L66.0114375,28.7366071 L66.0114375,25.7044643 C66.0114375,22.2589286 68.8321719,19.4555357 72.2994219,19.4555357 L81.075,19.4555357 L81.075,22.4876786 Z" id="Shape"></path>
                    <path d="M91.4002031,58.0019643 C89.8318906,54.4721429 85.6661953,52.8691071 82.1143125,54.4267857 C82.1053281,54.4307143 82.0965234,54.4348214 82.0875391,54.43875 L70.3472969,59.8192857 C69.4459844,60.2323214 69.0524688,61.2932143 69.4679063,62.18875 C69.8835234,63.0844643 70.9510469,63.4753571 71.8521797,63.0626786 L83.5780469,57.68875 C85.3143672,56.9348214 87.3462734,57.7201786 88.1124609,59.4446429 C88.8802656,61.1730357 88.09,63.1998214 86.3509844,63.9630357 L62.3256875,74.505 C58.5188281,76.1755357 54.1977031,76.0785714 50.4704453,74.2380357 L41.6758203,69.8960714 C36.9895703,67.5823214 31.5563594,67.4601786 26.7700234,69.5603571 L26.5971641,69.6364286 L20.024375,54.8425 L29.149625,50.8385714 C33.496625,48.9310714 38.3474687,48.7773214 42.8080312,50.405 L60.4934141,56.8594643 C62.1068281,57.4483929 62.9668125,59.2421429 62.4105,60.8582143 C61.8435859,62.5053571 60.0325156,63.3910714 58.3734609,62.83375 L44.6974453,58.2367857 C43.7573203,57.9207143 42.7375937,58.4219643 42.4195469,59.35625 C42.1015,60.2905357 42.6058828,61.3039286 43.5460078,61.62 L57.2220234,66.2169643 C57.9380781,66.4576786 58.6674297,66.5719643 59.3852812,66.5719643 C62.2060156,66.5719643 64.8493984,64.8073214 65.8109063,62.0146429 C66.9945078,58.5764286 65.1649297,54.7598214 61.7325391,53.5071429 L44.0473359,47.0526786 C38.7081016,45.1042857 32.9020391,45.2883929 27.6986484,47.57125 L18.5146406,51.6010714 C17.9980391,50.8121429 17.2521562,50.2019643 16.3517422,49.855 C15.2179141,49.4185714 13.9807656,49.4469643 12.8729922,49.9330357 L1.07560937,55.07 C0.422265625,55.3546429 0,55.9966071 0,56.7057143 L0,88.1660714 C0,88.78625 0.323796875,89.3619643 0.8553125,89.6871429 C1.14317188,89.8630357 1.46948438,89.9517857 1.796875,89.9517857 C2.07395313,89.9517857 2.35157031,89.8882143 2.60690625,89.76 L25.509875,78.2619643 C26.5989609,77.7696429 27.4354062,76.8894643 27.8682734,75.7789286 C28.2289063,74.8539286 28.2741875,73.8598214 28.0071719,72.9217857 L28.2213594,72.8278571 C32.0285781,71.1573214 36.3495234,71.2548214 40.0767813,73.095 L48.8714063,77.4369643 C53.5574766,79.7507143 58.9905078,79.8730357 63.7772031,77.7725 L87.8026797,67.2305357 C91.3545625,65.6717857 92.9683359,61.5317857 91.4002031,58.0019643 Z M24.5172812,74.4885714 C24.4247422,74.7258929 24.244875,74.9132143 24.0105625,75.0158929 C23.9819922,75.0283929 23.9539609,75.0417857 23.9261094,75.0557143 L3.59375,85.2632143 L3.59375,77.4464286 L8.90854687,74.8526786 C9.7994375,74.4178571 10.1668984,73.3478571 9.72935938,72.4625 C9.29182031,71.5771429 8.21477344,71.2119643 7.32442188,71.6467857 L3.59375,73.4673214 L3.59375,57.8726786 L14.3189375,53.2021429 C14.55325,53.0994643 14.8137969,53.0933929 15.0524219,53.1851786 C15.2912266,53.2771429 15.4797187,53.4560714 15.5832187,53.68875 L24.0353594,72.7123214 C24.0360781,72.7141071 24.0367969,72.7157143 24.0375156,72.7173214 L24.5005703,73.7594643 C24.6038906,73.9923214 24.6098203,74.25125 24.5172812,74.4885714 Z" id="Shape"></path>
                </g>
            </g>
        </g>
    </g>
</svg>