<?xml version="1.0" encoding="UTF-8"?>
<svg width="57px" height="70px" viewBox="0 0 57 70" version="1.1" xmlns="http://www.w3.org/2000/svg" xmlns:xlink="http://www.w3.org/1999/xlink">
    <!-- Generator: Sketch 50.2 (55047) - http://www.bohemiancoding.com/sketch -->
    <title>002-unlocked</title>
    <desc>Created with Sketch.</desc>
    <defs></defs>
    <g id="Page-1" stroke="none" stroke-width="1" fill="none" fill-rule="evenodd">
        <g id="Desktop-HD-Copy-2" transform="translate(-1023.000000, -1595.000000)" fill="#FFFFFF" fill-rule="nonzero">
            <g id="Group-6" transform="translate(0.000000, 1389.000000)">
                <g id="002-unlocked" transform="translate(1023.000000, 206.000000)">
                    <path d="M49.2272727,26.0724074 L49.2272727,18.7962963 C49.2272727,8.43240741 39.9285,0 28.5,0 C17.0715,0 7.77272727,8.43240741 7.77272727,18.7962963 C7.77272727,19.5131481 8.35179545,20.0925926 9.06818182,20.0925926 C9.78456818,20.0925926 10.3636364,19.5131481 10.3636364,18.7962963 C10.3636364,9.86092593 18.4990909,2.59259259 28.5,2.59259259 C38.5009091,2.59259259 46.6363636,9.86092593 46.6363636,18.7962963 L46.6363636,25.9259259 L9.36484091,25.9259259 C4.20115909,25.9259259 0,30.1298148 0,35.2968519 L0,60.6290741 C0,65.7961111 4.20115909,70 9.36484091,70 L47.6351591,70 C52.7988409,70 57,65.7961111 57,60.6290741 L57,35.2968519 C57,30.6742593 53.6331136,26.832037 49.2272727,26.0724074 Z M54.4090909,60.6290741 C54.4090909,64.3662963 51.3699545,67.4074074 47.6351591,67.4074074 L9.36484091,67.4074074 C5.63004545,67.4074074 2.59090909,64.3662963 2.59090909,60.6290741 L2.59090909,35.2968519 C2.59090909,31.5596296 5.63004545,28.5185185 9.36484091,28.5185185 L47.6351591,28.5185185 C51.3699545,28.5185185 54.4090909,31.5596296 54.4090909,35.2968519 L54.4090909,60.6290741 Z" id="Shape"></path>
                    <path d="M28.5,36.2962963 C25.6422273,36.2962963 23.3181818,38.6218519 23.3181818,41.4814815 L23.3181818,49.2592593 C23.3181818,52.1188889 25.6422273,54.4444444 28.5,54.4444444 C31.3577727,54.4444444 33.6818182,52.1188889 33.6818182,49.2592593 L33.6818182,41.4814815 C33.6818182,38.6218519 31.3577727,36.2962963 28.5,36.2962963 Z M31.0909091,49.2592593 C31.0909091,50.6890741 29.9288864,51.8518519 28.5,51.8518519 C27.0711136,51.8518519 25.9090909,50.6890741 25.9090909,49.2592593 L25.9090909,41.4814815 C25.9090909,40.0516667 27.0711136,38.8888889 28.5,38.8888889 C29.9288864,38.8888889 31.0909091,40.0516667 31.0909091,41.4814815 L31.0909091,49.2592593 Z" id="Shape"></path>
                </g>
            </g>
        </g>
    </g>
</svg>